G75*
%MOMM*%
%OFA0B0*%
%FSLAX33Y33*%
%IPPOS*%
%LPD*%
%AMOC8*
5,1,8,0,0,1.08239X$1,22.5*
%
%ADD10OC8,2.184*%
%ADD11C,2.184*%
%ADD12C,4.318*%
%ADD13C,4.318*%
%ADD14R,2.032X2.032*%
%ADD15C,1.676*%
%ADD16C,1.930*%
D10*
X17872Y14444D03*
X17872Y18827D03*
X19983Y31564D03*
X21020Y35664D03*
X21020Y40047D03*
X16960Y47388D03*
X11905Y47388D03*
X11820Y43240D03*
X15600Y31564D03*
X33420Y54752D03*
X35785Y52700D03*
X40168Y52700D03*
X45908Y53688D03*
X46061Y45640D03*
X50444Y45640D03*
D11*
X45908Y48608D03*
X16900Y43240D03*
D12*
X17092Y52804D02*
X21410Y52804D01*
X21410Y58804D02*
X17092Y58804D01*
D13*
X12392Y55804D03*
D14*
X28340Y54752D03*
D15*
X27976Y49588D02*
X26300Y49588D01*
X26300Y47048D02*
X27976Y47048D01*
X27976Y44508D02*
X26300Y44508D01*
X26300Y41968D02*
X27976Y41968D01*
X27976Y39428D02*
X26300Y39428D01*
X26300Y36888D02*
X27976Y36888D01*
X27976Y34348D02*
X26300Y34348D01*
X24842Y27610D02*
X23166Y27610D01*
X23166Y25070D02*
X24842Y25070D01*
X24842Y22530D02*
X23166Y22530D01*
X23166Y19990D02*
X24842Y19990D01*
X36358Y19990D02*
X38034Y19990D01*
X38034Y22530D02*
X36358Y22530D01*
X36358Y25070D02*
X38034Y25070D01*
X38034Y27610D02*
X36358Y27610D01*
X35596Y34348D02*
X33920Y34348D01*
X33920Y36888D02*
X35596Y36888D01*
X35596Y39428D02*
X33920Y39428D01*
X33920Y41968D02*
X35596Y41968D01*
X35596Y44508D02*
X33920Y44508D01*
X33920Y47048D02*
X35596Y47048D01*
X35596Y49588D02*
X33920Y49588D01*
X54726Y48090D02*
X56402Y48090D01*
X56402Y45550D02*
X54726Y45550D01*
X54726Y43010D02*
X56402Y43010D01*
X56402Y40470D02*
X54726Y40470D01*
X08122Y41470D02*
X06446Y41470D01*
X06446Y38930D02*
X08122Y38930D01*
X08122Y36390D02*
X06446Y36390D01*
X06446Y31294D02*
X08122Y31294D01*
X08122Y28754D02*
X06446Y28754D01*
X06446Y26214D02*
X08122Y26214D01*
X08122Y23674D02*
X06446Y23674D01*
X06446Y44010D02*
X08122Y44010D01*
D16*
X05460Y08526D02*
X05460Y06596D01*
X10540Y06596D02*
X10540Y08526D01*
X15620Y08526D02*
X15620Y06596D01*
X25248Y06732D02*
X25248Y08662D01*
X30328Y08662D02*
X30328Y06732D01*
X35408Y06732D02*
X35408Y08662D01*
X45172Y08662D02*
X45172Y06732D01*
X50252Y06732D02*
X50252Y08662D01*
X55332Y08662D02*
X55332Y06732D01*
M02*
